<svg width="388" height="128" viewBox="0 0 388 128" fill="none" xmlns="http://www.w3.org/2000/svg">
<g clip-path="url(#clip0_17_2)">
<path d="M31.2719 32.4782C28.7602 32.4782 26.7167 34.3924 26.7167 36.7453C26.7167 39.0982 28.7602 41.0124 31.2719 41.0124C33.7836 41.0124 35.827 39.0982 35.827 36.7453C35.827 34.3924 33.7836 32.4782 31.2719 32.4782Z" fill="white"/>
<path d="M75.5836 73.9877C73.0719 73.9877 71.0284 75.9019 71.0284 78.2548C71.0284 80.6077 73.0719 82.5219 75.5836 82.5219C78.0953 82.5219 80.1387 80.6077 80.1387 78.2548C80.1387 75.9019 78.0953 73.9877 75.5836 73.9877Z" fill="white"/>
<path d="M31.2719 73.9877C28.7602 73.9877 26.7167 75.9019 26.7167 78.2548C26.7167 80.6077 28.7602 82.5219 31.2719 82.5219C33.7836 82.5219 35.827 80.6077 35.827 78.2548C35.827 75.9019 33.7836 73.9877 31.2719 73.9877Z" fill="white"/>
<path d="M71.0284 36.7452C71.0284 37.8769 71.5084 38.9622 72.3626 39.7624C73.2169 40.5627 74.3755 41.0122 75.5836 41.0122C76.7917 41.0122 77.9503 40.5627 78.8045 39.7624C79.6588 38.9622 80.1387 37.8769 80.1387 36.7452C80.1387 35.6135 79.6588 34.5281 78.8045 33.7279C77.9503 32.9276 76.7917 32.4781 75.5836 32.4781C74.3755 32.4781 73.2169 32.9276 72.3626 33.7279C71.5084 34.5281 71.0284 35.6135 71.0284 36.7452Z" fill="white"/>
<path d="M19.985 47.1215C18.118 47.1215 16.5989 48.5443 16.5989 50.2933C16.5989 52.0424 18.118 53.4653 19.985 53.4653C21.8521 53.4653 23.3711 52.0423 23.3711 50.2933C23.3711 48.5443 21.8522 47.1215 19.985 47.1215Z" fill="white"/>
<path d="M86.8706 53.4654C88.7378 53.4654 90.2567 52.0424 90.2567 50.2934C90.2567 48.5445 88.7376 47.1215 86.8706 47.1215C85.0035 47.1215 83.4845 48.5445 83.4845 50.2934C83.4845 52.0424 85.0034 53.4654 86.8706 53.4654Z" fill="white"/>
<path d="M19.985 61.5345C18.118 61.5345 16.5989 62.9575 16.5989 64.7067C16.5989 66.4557 18.118 67.8786 19.985 67.8786C21.8521 67.8786 23.3711 66.4557 23.3711 64.7067C23.3711 62.9575 21.8522 61.5345 19.985 61.5345Z" fill="white"/>
<path d="M86.8706 61.5345C85.0034 61.5345 83.4845 62.9575 83.4845 64.7065C83.4845 66.4555 85.0035 67.8785 86.8706 67.8785C88.7376 67.8785 90.2567 66.4557 90.2567 64.7067C90.2567 62.9575 88.7376 61.5345 86.8706 61.5345Z" fill="white"/>
<path d="M57.7349 26.172C57.7349 27.0132 58.0917 27.82 58.7267 28.4149C59.3617 29.0098 60.223 29.3439 61.121 29.3439C62.0191 29.3439 62.8803 29.0098 63.5154 28.4149C64.1504 27.82 64.5071 27.0132 64.5071 26.172C64.5071 25.3307 64.1504 24.5239 63.5154 23.929C62.8803 23.3342 62.0191 23 61.121 23C60.223 23 59.3617 23.3342 58.7267 23.929C58.0917 24.5239 57.7349 25.3307 57.7349 26.172Z" fill="white"/>
<path d="M57.7349 88.828C57.7349 89.6693 58.0917 90.4761 58.7267 91.0709C59.3617 91.6658 60.223 92 61.121 92C62.0191 92 62.8803 91.6658 63.5154 91.0709C64.1504 90.4761 64.5071 89.6693 64.5071 88.828C64.5071 87.9867 64.1504 87.1799 63.5154 86.5851C62.8803 85.9902 62.0191 85.656 61.121 85.656C60.223 85.656 59.3617 85.9902 58.7267 86.5851C58.0917 87.1799 57.7349 87.9867 57.7349 88.828Z" fill="white"/>
<path d="M45.7345 85.656C43.8675 85.656 42.3484 87.079 42.3484 88.828C42.3484 90.577 43.8675 92 45.7345 92C47.6017 92 49.1206 90.577 49.1206 88.828C49.1206 87.079 47.6017 85.656 45.7345 85.656Z" fill="white"/>
<path d="M45.7345 29.3439C47.6017 29.3439 49.1206 27.921 49.1206 26.172C49.1208 24.423 47.6017 23 45.7345 23C43.8675 23 42.3484 24.423 42.3484 26.172C42.3486 27.921 43.8675 29.3439 45.7345 29.3439Z" fill="white"/>
<path d="M31.2719 46.0263C28.7602 46.0263 26.7167 47.9406 26.7167 50.2934C26.7167 52.6463 28.7602 54.5605 31.2719 54.5605C33.7836 54.5605 35.827 52.6463 35.827 50.2934C35.827 47.9406 33.7836 46.0263 31.2719 46.0263Z" fill="white"/>
<path d="M75.5835 46.0263C73.0718 46.0263 71.0284 47.9406 71.0284 50.2934C71.0284 52.6463 73.0718 54.5605 75.5835 54.5605C78.0952 54.5605 80.1386 52.6463 80.1386 50.2934C80.1386 47.9406 78.0952 46.0263 75.5835 46.0263Z" fill="white"/>
<path d="M31.2719 60.4396C28.7602 60.4396 26.7167 62.3538 26.7167 64.7067C26.7167 67.0595 28.7602 68.9737 31.2719 68.9737C33.7836 68.9737 35.827 67.0595 35.827 64.7067C35.827 62.3538 33.7836 60.4396 31.2719 60.4396Z" fill="white"/>
<path d="M75.5835 60.4396C73.0718 60.4396 71.0284 62.3538 71.0284 64.7067C71.0284 67.0595 73.0718 68.9737 75.5835 68.9737C78.0952 68.9737 80.1386 67.0595 80.1386 64.7067C80.1386 62.3538 78.0952 60.4396 75.5835 60.4396Z" fill="white"/>
<path d="M61.121 41.0122C63.6328 41.0122 65.676 39.098 65.676 36.7452C65.676 34.3923 63.6328 32.4781 61.121 32.4781C58.6093 32.4781 56.5659 34.3923 56.5659 36.7452C56.5659 39.098 58.6093 41.0122 61.121 41.0122Z" fill="white"/>
<path d="M61.121 73.9878C58.6093 73.9878 56.5659 75.902 56.5659 78.2548C56.5659 80.6077 58.6093 82.5219 61.121 82.5219C63.6328 82.5219 65.676 80.6077 65.676 78.2548C65.676 75.902 63.6328 73.9878 61.121 73.9878Z" fill="white"/>
<path d="M45.7346 41.0122C48.2463 41.0122 50.2897 39.098 50.2897 36.7452C50.2897 34.3923 48.2463 32.4781 45.7346 32.4781C43.2229 32.4781 41.1794 34.3923 41.1794 36.7452C41.1794 39.098 43.2229 41.0122 45.7346 41.0122Z" fill="white"/>
<path d="M45.7346 73.9878C43.2229 73.9878 41.1794 75.902 41.1794 78.2548C41.1794 80.6077 43.2229 82.5219 45.7346 82.5219C48.2463 82.5219 50.2897 80.6077 50.2897 78.2548C50.2897 75.902 48.2463 73.9878 45.7346 73.9878Z" fill="white"/>
<path d="M40.3052 51.9061C39.588 49.0639 41.4662 46.2151 44.5004 45.5432C47.5345 44.8713 50.5756 46.6308 51.2928 49.4731C52.01 52.3154 50.1318 55.1642 47.0976 55.836C44.0635 56.5079 41.0224 54.7484 40.3052 51.9061Z" fill="white"/>
<path d="M61.2813 59.5361C58.1686 59.4755 55.5836 61.7983 55.5188 64.7142C55.4541 67.6301 57.9337 70.0516 61.0465 70.1123C64.1591 70.1729 66.7441 67.8501 66.8088 64.9342C66.8736 62.0184 64.3939 59.5968 61.2813 59.5361Z" fill="white"/>
<path d="M41.8006 68.5624C39.596 66.4971 39.596 63.1487 41.8006 61.0834C44.0053 59.0181 47.5798 59.0181 49.7845 61.0834C51.9891 63.1487 51.9891 66.4971 49.7845 68.5624C47.5798 70.6276 44.0053 70.6276 41.8006 68.5624Z" fill="white"/>
<path d="M61.1639 45.4113C58.0505 45.4113 55.5176 47.784 55.5176 50.7006C55.5176 53.6171 58.0505 55.9898 61.1639 55.9898C64.2772 55.9898 66.8101 53.6171 66.8101 50.7006C66.8101 47.784 64.2772 45.4113 61.1639 45.4113Z" fill="white"/>
<path d="M106.482 79.6875C105.202 79.6791 104.18 79.3311 103.417 78.6434C102.654 77.9557 102.276 77.0145 102.285 75.8199L102.455 51.6925C102.495 46.018 104.297 41.5924 107.861 38.4157C111.425 35.239 116.343 33.6712 122.615 33.7124C128.887 33.7535 133.782 35.3857 137.301 38.6089C140.819 41.832 142.559 46.2809 142.518 51.9554L142.348 76.0828C142.34 77.2774 141.949 78.2136 141.176 78.8912C140.403 79.5688 139.377 79.9034 138.097 79.895C136.817 79.8866 135.774 79.5384 134.968 78.8504C134.205 78.1201 133.828 77.1789 133.836 76.0269L134.008 51.7075C134.034 48.081 133.072 45.3013 131.123 43.3684C129.174 41.4356 126.322 40.4569 122.567 40.4322C118.813 40.4076 115.947 41.3488 113.971 43.2559C111.995 45.1629 110.994 47.9298 110.968 51.5563L110.797 75.8757C110.789 77.0277 110.377 77.9637 109.561 78.6837C108.788 79.3613 107.762 79.6959 106.482 79.6875ZM161.299 80.0472C158.654 80.0299 156.31 79.5665 154.269 78.6571C152.27 77.7479 150.7 76.5003 149.559 74.9141C148.461 73.2855 147.92 71.4259 147.934 69.3353C147.957 66.1781 149.276 63.6693 151.892 61.8091C154.55 59.9492 158.119 59.0339 162.599 59.0633C166.482 59.0888 169.591 59.9412 171.925 61.6206L171.936 60.0846C171.95 58.0793 171.343 56.5393 170.113 55.4646C168.883 54.3898 167.095 53.8447 164.748 53.8293C161.25 53.8064 158.236 54.5333 155.709 56.01C154.638 56.6004 153.718 56.893 152.95 56.888C152.012 56.8818 151.183 56.4497 150.463 55.5916C149.998 54.9912 149.768 54.371 149.773 53.731C149.78 52.6644 150.341 51.7294 151.456 50.926C153 49.8268 154.948 48.9649 157.299 48.3403C159.65 47.7157 162.127 47.412 164.729 47.4291C169.679 47.4615 173.553 48.6177 176.353 50.8974C179.196 53.1348 180.604 56.2161 180.576 60.1413L180.46 76.5889C180.452 77.6982 180.062 78.5703 179.289 79.2053C178.56 79.8405 177.555 80.1539 176.275 80.1455C174.952 80.1368 173.93 79.8315 173.209 79.2294C172.488 78.6273 172.131 77.7716 172.139 76.6623L172.144 75.9583C169.693 78.7156 166.078 80.0786 161.299 80.0472ZM163.325 74.1724C166.012 74.1901 168.106 73.7985 169.605 72.9976C171.147 72.1544 171.923 70.9861 171.934 69.4928C171.944 68.0848 171.184 66.9492 169.654 66.0858C168.124 65.2224 166.079 64.7823 163.519 64.7655C161.215 64.7504 159.42 65.1439 158.135 65.9462C156.891 66.7487 156.265 67.8966 156.254 69.3899C156.244 70.8832 156.854 72.0606 158.085 72.922C159.317 73.7408 161.063 74.1576 163.325 74.1724ZM210.548 71.4743C211.227 72.0334 211.563 72.7183 211.557 73.5289C211.552 74.3396 211.247 75.1696 210.644 76.019C209.695 77.3781 208.365 78.4361 206.653 79.1929C204.941 79.9496 203.018 80.321 200.885 80.307C197.472 80.2846 194.79 79.3497 192.841 77.5022C190.934 75.6123 189.992 73.0461 190.015 69.8035L190.121 54.8279L187.497 54.8106C186.217 54.8022 185.195 54.4969 184.431 53.8945C183.668 53.2921 183.289 52.5003 183.296 51.519C183.303 50.495 183.672 49.6868 184.401 49.0942C185.173 48.5019 186.221 48.2101 187.543 48.2188L190.167 48.236L190.236 38.5723C190.244 37.3776 190.635 36.4415 191.408 35.7639C192.18 35.0863 193.207 34.7517 194.487 34.7601C195.809 34.7688 196.831 35.1168 197.551 35.8042C198.272 36.4916 198.628 37.4326 198.619 38.6273L198.551 48.291L204.695 48.3314C206.018 48.34 207.04 48.6454 207.761 49.2475C208.524 49.8499 208.903 50.663 208.895 51.687C208.889 52.6683 208.499 53.4551 207.727 54.0474C206.997 54.6399 205.971 54.9319 204.649 54.9232L198.505 54.8829L198.394 70.5625C198.387 71.5011 198.659 72.2496 199.21 72.8079C199.803 73.3665 200.591 73.649 201.572 73.6554C202.34 73.6604 203.002 73.5581 203.558 73.3484C204.157 73.0964 204.758 72.695 205.359 72.1442C206.476 71.0849 207.504 70.5583 208.442 70.5644C209.125 70.5689 209.827 70.8722 210.548 71.4743ZM221.629 43.8344C220.051 43.824 218.774 43.389 217.798 42.5292C216.866 41.6271 216.405 40.472 216.415 39.0641C216.425 37.6561 216.902 36.5285 217.847 35.6814C218.834 34.7919 220.118 34.3523 221.696 34.3626C223.275 34.373 224.552 34.8294 225.527 35.7318C226.545 36.5918 227.049 37.7258 227.039 39.1338C227.029 40.5418 226.509 41.6904 225.478 42.5796C224.491 43.4265 223.208 43.8448 221.629 43.8344ZM221.435 80.4419C220.112 80.4332 219.091 80.0852 218.37 79.3978C217.65 78.7104 217.293 77.7693 217.302 76.5747L217.478 51.6153C217.487 50.4207 217.856 49.4844 218.586 48.8065C219.316 48.1286 220.343 47.794 221.665 47.8027C222.945 47.8111 223.967 48.1592 224.73 48.8468C225.493 49.5345 225.87 50.4757 225.862 51.6703L225.686 76.6297C225.677 77.8244 225.287 78.7605 224.514 79.4381C223.741 80.1157 222.715 80.4503 221.435 80.4419ZM249.518 80.6262C244.441 80.5929 240.941 77.7325 239.018 72.0451L232.372 52.5451C232.247 52.1602 232.185 51.7972 232.188 51.4558C232.195 50.4745 232.627 49.6454 233.485 48.9683C234.386 48.2915 235.54 47.9578 236.948 47.967C237.802 47.9726 238.526 48.1694 239.12 48.5573C239.715 48.9452 240.138 49.4813 240.389 50.1656L247.41 71.0122C247.744 72.081 248.08 72.8513 248.418 73.3228C248.756 73.7517 249.138 73.9676 249.565 73.9704C249.992 73.9732 250.377 73.7624 250.722 73.3379C251.066 72.8709 251.413 72.1051 251.762 71.0407L259.077 50.2883C259.337 49.6073 259.768 49.0768 260.368 48.6967C260.968 48.3166 261.695 48.1294 262.548 48.135C263.999 48.1445 265.148 48.4934 265.997 49.1817C266.845 49.8273 267.266 50.662 267.259 51.686C267.257 52.0273 267.19 52.3896 267.059 52.7727L260.138 72.1837C258.135 77.8454 254.595 80.6595 249.518 80.6262ZM286.906 80.8716C283.237 80.8475 280.041 80.1652 277.32 78.8246C274.599 77.4841 272.5 75.6142 271.023 73.2152C269.59 70.7737 268.885 67.9317 268.908 64.6891C268.945 59.4412 270.488 55.3766 273.538 52.4952C276.63 49.6141 280.95 48.1918 286.496 48.2282C289.91 48.2506 292.914 48.8036 295.509 49.8874C298.147 50.9714 300.184 52.4781 301.621 54.4076C303.101 56.2947 303.833 58.4542 303.815 60.8861C303.801 62.9341 303.128 64.5083 301.798 65.609C300.51 66.7099 298.672 67.2525 296.282 67.2368L277.019 67.1104C277.002 69.4997 277.821 71.3184 279.476 72.5666C281.174 73.7725 283.666 74.3862 286.951 74.4077C290.407 74.4304 293.357 73.6817 295.8 72.1617C297.171 71.3174 298.241 70.8977 299.009 70.9028C299.734 70.9075 300.435 71.2535 301.113 71.9406C301.833 72.6707 302.191 73.4624 302.184 74.3157C302.177 75.3397 301.745 76.1475 300.887 76.7392C299.086 78.0928 296.988 79.1244 294.593 79.834C292.199 80.5436 289.636 80.8895 286.906 80.8716ZM293.764 61.3322C294.489 61.3369 295.002 61.2123 295.303 60.9582C295.603 60.6615 295.756 60.1932 295.761 59.5532C295.771 58.0599 294.926 56.881 293.226 56.0165C291.568 55.1523 289.309 54.7108 286.451 54.692C283.592 54.6733 281.327 55.2557 279.654 56.4395C278.024 57.6234 277.202 59.2181 277.188 61.2234L293.764 61.3322ZM346.346 81.2616C342.335 81.2353 338.821 80.4016 335.803 78.7604C332.828 77.1195 330.519 74.8003 328.876 71.8028C327.276 68.7629 326.491 65.195 326.519 61.0991L326.676 38.8917C326.685 37.697 327.075 36.7609 327.848 36.0833C328.621 35.4057 329.647 35.0711 330.927 35.0795C332.207 35.0879 333.229 35.4573 333.992 36.1876C334.797 36.8756 335.196 37.7955 335.188 38.9475L335.03 61.347C335 65.5709 335.98 68.82 337.969 71.0945C339.958 73.3689 342.83 74.5184 346.585 74.5431C350.297 74.5674 353.163 73.4556 355.185 71.2074C357.249 68.9169 358.296 65.6811 358.325 61.4998L358.484 39.1004C358.492 37.9484 358.882 37.0336 359.655 36.356C360.471 35.636 361.519 35.2802 362.799 35.2886C364.079 35.297 365.1 35.6451 365.863 36.3328C366.627 37.0205 367.004 37.9616 366.995 39.1563L366.839 61.3637C366.811 65.3316 365.933 68.8246 364.204 71.8426C362.519 74.861 360.135 77.1921 357.051 78.8358C353.967 80.4796 350.399 81.2882 346.346 81.2616ZM378.438 44.8635C376.86 44.8531 375.583 44.4181 374.608 43.5583C373.675 42.6562 373.214 41.5011 373.224 40.0932C373.234 38.6852 373.711 37.5576 374.656 36.7105C375.644 35.8209 376.927 35.3814 378.505 35.3917C380.084 35.4021 381.361 35.8585 382.336 36.7609C383.354 37.6209 383.858 38.7549 383.848 40.1629C383.838 41.5708 383.318 42.7195 382.287 43.6087C381.3 44.4556 380.017 44.8738 378.438 44.8635ZM378.244 81.471C376.921 81.4623 375.9 81.1143 375.179 80.4269C374.459 79.7394 374.103 78.7984 374.111 77.6038L374.287 52.6444C374.296 51.4498 374.665 50.5135 375.395 49.8356C376.125 49.1577 377.152 48.8231 378.474 48.8318C379.754 48.8402 380.776 49.1882 381.539 49.8759C382.302 50.5636 382.68 51.5048 382.671 52.6994L382.495 77.6588C382.486 78.8534 382.096 79.7896 381.323 80.4672C380.55 81.1448 379.524 81.4794 378.244 81.471Z" fill="white"/>
</g>
<defs>
<clipPath id="clip0_17_2">
<rect width="388" height="128" fill="white"/>
</clipPath>
</defs>
</svg>
